PathFileType	4	(X/Y/Z)	 s02c0401.trc
DataRate	CameraRate	NumFrames	NumMarkers	Units	OrigDataRate	OrigDataStartFrame	OrigNumFrames
200	200	4	50	mm	200	1001	2000
Frame#	Time	racr			lacr			c7			jug			rlel			rdr			llel			ldr			s2			lic			ric			lasi			rasi			rpsi			lpsi			rgt			lgt			rth1			rth2			rth3			rth4			rlfc			rmfc			rsh1			rsh2			rsh3			rsh4			rlmal			rmmal			rtoe			rmt5			rmt1			lth1			lth2			lth4			lth3			llfc			lmfc			lsh1			lsh2			lsh3			lsh4			llmal			lmmal			lcal			ltoe			lmt5			SBIKE			LBIKE			RBIKE			
		X1	Y1	Z1	X2	Y2	Z2	X3	Y3	Z3	X4	Y4	Z4	X5	Y5	Z5	X6	Y6	Z6	X7	Y7	Z7	X8	Y8	Z8	X9	Y9	Z9	X10	Y10	Z10	X11	Y11	Z11	X12	Y12	Z12	X13	Y13	Z13	X14	Y14	Z14	X15	Y15	Z15	X16	Y16	Z16	X17	Y17	Z17	X18	Y18	Z18	X19	Y19	Z19	X20	Y20	Z20	X21	Y21	Z21	X22	Y22	Z22	X23	Y23	Z23	X24	Y24	Z24	X25	Y25	Z25	X26	Y26	Z26	X27	Y27	Z27	X28	Y28	Z28	X29	Y29	Z29	X30	Y30	Z30	X31	Y31	Z31	X32	Y32	Z32	X33	Y33	Z33	X34	Y34	Z34	X35	Y35	Z35	X36	Y36	Z36	X37	Y37	Z37	X38	Y38	Z38	X39	Y39	Z39	X40	Y40	Z40	X41	Y41	Z41	X42	Y42	Z42	X43	Y43	Z43	X44	Y44	Z44	X45	Y45	Z45	X46	Y46	Z46	X47	Y47	Z47	X48	Y48	Z48	X49	Y49	Z49	X50	Y50	Z50	
1001	5.0050	800.797763	1186.543704	-154.464886	800.605158	1189.019551	-520.772759	816.444068	1250.698728	-345.490424	744.309450	1128.212471	-355.030557	611.911930	1029.182849	-40.354407	715.350725	884.105102	-115.331190	580.663799	1027.965780	-624.926029	704.394599	894.971019	-515.378549	256.131938	1198.339920	-295.622950	367.713464	1185.924039	-453.993982	400.165803	1155.701998	-170.912676	400.282063	1144.602978	-431.467736	433.066645	1111.386786	-202.156034	299.406765	1232.409364	-248.950431	296.735806	1246.085018	-329.739028	341.087654	1069.494330	-137.482141	306.502131	1120.686617	-489.048960	377.250440	978.208182	-135.358835	409.922596	896.191505	-140.164731	404.004058	812.091048	-122.042375	438.011001	898.440864	-166.554931	393.166940	673.299875	-159.256368	367.185262	662.117562	-263.870430	347.803965	578.115828	-135.251191	323.064318	493.430887	-150.827825	266.450817	429.405480	-140.706777	332.711870	489.799751	-188.749811	196.003213	329.058416	-142.060908	209.433334	339.729574	-223.589046	299.169665	122.059275	-190.000710	218.063900	192.459154	-129.769717	241.346040	183.242699	-237.806003	420.193828	1040.914592	-505.180686	498.780491	1003.696606	-506.363959	520.754815	1029.105968	-488.879557	549.062527	930.324790	-510.090504	623.046749	858.282859	-495.104505	625.104515	832.491021	-382.832800	574.244542	772.039860	-507.574342	525.960316	702.348934	-488.382258	445.691923	660.870223	-492.651454	539.982744	691.548134	-451.340272	348.287998	595.169984	-477.283810	362.800365	589.168430	-398.069012	262.701545	575.286120	-437.748405	518.926430	446.127251	-437.024515	414.470780	468.007082	-500.860595	-162.271807	861.023657	-309.501810	37.374896	86.782322	-514.243620	34.027389	83.271468	-114.095072	
1002	5.0100	802.296585	1185.268817	-156.742673	799.437376	1187.348157	-522.780905	816.985235	1249.402266	-347.869392	744.051963	1127.358454	-356.945467	613.034104	1029.799400	-40.816766	715.400911	883.910739	-115.553540	579.018068	1027.053871	-625.896572	703.839369	895.294411	-515.926642	257.013861	1201.032725	-295.785265	368.582016	1186.967925	-453.945769	400.170175	1158.088077	-170.843479	401.161352	1145.766288	-431.649624	431.911255	1112.967173	-202.453671	300.149487	1236.025358	-248.843568	297.728910	1248.839789	-329.933474	340.412353	1071.837246	-137.223254	307.245886	1122.115360	-488.710721	376.910929	980.172289	-135.833884	410.488370	898.504780	-140.738012	405.522063	814.302501	-122.773914	438.459026	901.130336	-167.135941	395.780616	675.024559	-159.870170	369.722809	664.717582	-264.569557	348.271394	580.883516	-136.252110	321.432884	496.635841	-152.135483	263.162608	434.225402	-142.055301	331.202608	492.895201	-189.844996	189.955345	335.390047	-143.435140	203.777619	345.902410	-225.194822	292.042269	127.574021	-189.809786	211.019293	198.784877	-130.418628	234.950944	188.622749	-238.217150	419.703606	1040.732044	-505.707589	497.698746	1002.192241	-507.248045	520.115244	1027.218348	-489.809872	546.525509	928.094509	-511.502749	620.294711	854.725853	-495.365447	622.844835	828.841300	-383.903901	571.212817	766.953344	-508.877832	524.218751	696.463842	-489.214426	445.015277	653.010906	-491.970356	538.496515	686.207678	-452.205330	348.716167	586.611814	-477.223031	363.447814	580.848152	-398.049531	263.571865	563.215386	-437.663410	524.999124	444.761238	-437.780767	419.428441	462.085114	-501.397314	-162.298889	860.930212	-309.546122	37.378919	86.677941	-514.289349	34.010012	83.261998	-114.135034	
1003	5.0150	803.524983	1183.765576	-158.652579	798.113045	1185.633335	-524.719437	817.356534	1248.128232	-350.150894	743.629500	1126.540310	-358.872270	614.012865	1030.210674	-41.243359	715.374563	883.669781	-115.706673	577.229617	1026.056017	-626.851168	703.364611	895.675479	-516.519030	257.895111	1203.491572	-296.086333	369.403847	1188.001169	-454.304768	400.081207	1160.445575	-170.804012	402.078135	1146.757392	-431.758643	431.479858	1114.814686	-201.982873	300.791877	1239.367378	-248.977195	298.697502	1251.540033	-330.397918	339.816522	1074.214122	-137.117981	308.002905	1123.265681	-488.349969	376.938542	982.163283	-136.342859	411.437357	900.874186	-141.473453	407.509069	816.600394	-123.555427	439.393480	903.862426	-167.725716	398.764342	677.073134	-160.387273	373.255123	667.027132	-265.290582	349.273555	583.574416	-137.164841	320.453482	500.032023	-153.054697	260.692875	439.113594	-143.224898	329.786513	496.272563	-191.228834	184.510453	342.026001	-144.502609	199.076454	352.045031	-226.287246	285.070038	133.170026	-189.431271	204.385594	205.214950	-131.021487	229.137569	193.290629	-238.369196	419.317482	1040.061108	-506.222419	496.575807	1000.162194	-508.094524	519.476243	1024.772333	-490.691093	544.041126	925.183184	-512.400153	617.235985	850.497726	-495.378556	619.498608	824.290820	-385.272453	567.884939	761.025739	-510.011363	522.195857	689.775821	-489.908687	443.977488	644.680776	-492.500008	536.662889	680.231808	-452.725089	349.037614	577.626719	-476.865433	363.973844	571.969790	-397.851361	264.494367	550.715032	-437.474665	530.231200	442.820179	-438.049395	424.185141	455.772526	-501.826497	-162.264498	860.904461	-309.847200	37.351519	86.534135	-514.273030	34.005654	83.225492	-114.163612	
1004	5.0200	804.580812	1182.366570	-160.348375	796.767530	1183.971690	-526.647312	817.597211	1246.733428	-352.232651	743.062776	1125.609141	-360.473976	614.779522	1030.555468	-41.500464	715.354079	883.020611	-116.094951	575.403121	1025.025796	-627.759279	702.861861	895.952202	-517.370956	258.803787	1205.667970	-296.583779	370.357853	1188.550133	-454.290368	399.961597	1162.687435	-170.865569	402.963490	1147.420626	-432.001501	431.162610	1116.531039	-201.561431	301.482601	1242.487290	-249.345798	299.510316	1253.951850	-331.095044	339.381797	1076.524156	-137.069882	308.950640	1124.131899	-488.261305	377.454123	984.220023	-136.735145	412.801576	903.312123	-142.256938	409.963987	819.037786	-124.446594	440.723899	906.634521	-168.455269	402.322028	679.149425	-160.936557	377.497205	669.226657	-266.076236	350.980485	586.172438	-137.908970	320.091238	503.360426	-153.825658	258.491804	444.097991	-144.167241	329.268912	499.383757	-192.183584	179.766048	348.778988	-145.262492	195.584024	358.371587	-226.771123	278.252994	138.721660	-189.073359	198.176997	211.922186	-131.224676	223.597285	198.832878	-238.310535	418.904359	1039.082754	-506.834103	495.392504	997.616745	-508.949054	518.857746	1021.824622	-491.576625	541.359255	921.713997	-513.290871	613.064931	845.288504	-496.228261	615.954202	819.199834	-386.565142	564.345978	754.486355	-510.874550	519.954052	682.523325	-490.216983	442.737611	635.969377	-492.597019	534.712705	673.637129	-453.040227	349.502320	568.074279	-476.505086	364.693462	562.611103	-397.467219	265.584621	538.107748	-436.937157	535.537038	439.957978	-438.793740	428.650026	449.047235	-502.219701	-162.374243	860.807754	-309.898664	37.333895	86.433343	-514.314008	33.415089	83.693522	-114.257006	
